<?xml version="1.0" encoding="UTF-8" standalone="no"?>
<!-- Created with Inkscape (http://www.inkscape.org/) -->

<svg
   version="1.1"
   id="svg2"
   width="400"
   height="400"
   viewBox="0 0 400 400"
   sodipodi:docname="favicon.svg"
   inkscape:version="1.2.2 (b0a8486541, 2022-12-01)"
   xmlns:inkscape="http://www.inkscape.org/namespaces/inkscape"
   xmlns:sodipodi="http://sodipodi.sourceforge.net/DTD/sodipodi-0.dtd"
   xmlns="http://www.w3.org/2000/svg"
   xmlns:svg="http://www.w3.org/2000/svg">
  <defs
     id="defs6">
    <clipPath
       clipPathUnits="userSpaceOnUse"
       id="clipPath22">
      <path
         d="m 1859.08,3689.13 c -14.49,-3.2 -29.1,-6.4 -43.7,-9.7 -15.59,-3.5 -31.3,-6.7 -47.29,-9.9 -2.61,6.7 -5,13.4 -7.31,20.1 12.5,15.3 25.51,30.2 38.9,44.9 10.51,11.5 21.3,22.6 32.3,33.6 8.1,-26.6 17.1,-53 27.1,-79 z"
         id="path20" />
    </clipPath>
    <linearGradient
       x1="0"
       y1="0"
       x2="1"
       y2="0"
       gradientUnits="userSpaceOnUse"
       gradientTransform="matrix(95.919,19.6401,19.6401,-95.919,1756.63,3709.92)"
       spreadMethod="pad"
       id="linearGradient28">
      <stop
         style="stop-opacity:1;stop-color:#52b4e1"
         offset="0"
         id="stop24" />
      <stop
         style="stop-opacity:1;stop-color:#2d4ea8"
         offset="1"
         id="stop26" />
    </linearGradient>
    <clipPath
       clipPathUnits="userSpaceOnUse"
       id="clipPath38">
      <path
         d="m 4010.68,4935.13 c -2.09,-0.2 -4.19,-0.5 -6.2,-0.7 l -9.9,-1.1 c -6.8,-0.8 -13.4,-1.6 -20,-2.4 -81.2,94.1 -175.8,175.9 -280.4,242 -138.09,88 -293.09,148.7 -453.4,176.9 -160.19,28.6 -325.4,25.8 -483.89,-8.5 -158.41,-34.6 -309.51,-99.6 -442.5,-190.9 -133.21,-91.2 -247.7,-208.9 -335.51,-344 -87.9,-134.9 -149.89,-286.5 -179.89,-444.5 -30.31,-158 -28.61,-321.6 3.79,-479 5.61,-27.6 12.2,-55.1 19.8,-82.2 -3.79,-3.7 -7.79,-7.4 -11.6,-11.2 -12.3,-12.2 -23.29,-23.6 -33.5,-34.8 -9.5,-10.4 -18.89,-21.1 -28,-31.9 -15.2,46.4 -27.7,93.6 -37.59,141.4 -34.41,169.3 -35.4,345.4 -2.1,515 33.19,169.4 99.8,332.3 195.59,475.7 95.91,143.4 220,267.5 363.3,363 71.6,47.8 147.81,88.6 227.3,121.1 79.61,32.4 162.2,56.9 246.31,73.3 168.3,32.4 342.9,32.4 510,-2.7 167.19,-34.8 326.89,-102.8 467,-198.6 110.99,-76.3 209.89,-169.8 291.39,-275.9 z"
         id="path36" />
    </clipPath>
    <linearGradient
       x1="0"
       y1="0"
       x2="1"
       y2="0"
       gradientUnits="userSpaceOnUse"
       gradientTransform="matrix(2459.64,503.629,503.629,-2459.64,1595.14,4434.37)"
       spreadMethod="pad"
       id="linearGradient44">
      <stop
         style="stop-opacity:1;stop-color:#52b4e1"
         offset="0"
         id="stop40" />
      <stop
         style="stop-opacity:1;stop-color:#2d4ea8"
         offset="1"
         id="stop42" />
    </linearGradient>
    <clipPath
       clipPathUnits="userSpaceOnUse"
       id="clipPath54">
      <path
         d="m 4268.38,3885.13 c -28.1,-166.2 -90.6,-326.8 -181.4,-470.3 -91.2,-143 -211.2,-268.3 -351.3,-366 -139.9,-98.1 -300.4,-166.6 -467.8,-202.9 -83.8,-18 -169.39,-28 -255.4,-29.4 -85.9,-1.4 -172,6.2 -256.59,22 -169.2,31.5 -332.1,96.9 -476.61,190.9 -118.3,76.9 -223.39,173.6 -310.8,284.3 15.51,2.1 28.9,4.1 41.6,6.1 9.2,1 18.51,2 27.61,3 5.7,0.6 11.39,1.3 16.99,1.9 h 0.51 c 6.39,0.8 12.9,1.6 19.29,2.3 73.61,-85.7 159.11,-161.4 253.1,-224.3 133.91,-89.6 285.51,-152.9 443.8,-184.5 158.21,-31.6 322.8,-32.1 482,-1.5 159.21,30.6 312.21,93.2 448.41,182.3 136.19,89 254.79,205.7 347.29,340.9 93.11,134.9 159.1,288.8 194.2,450.1 17.5,80.6 27.1,163.2 28.61,246.1 1.7,82.9 -4.7,166.3 -19.01,248.4 18.91,-81.2 30,-164.5 32.9,-248.3 2.6,-83.8 -3.3,-168 -17.4,-251.1 z"
         id="path52" />
    </clipPath>
    <linearGradient
       x1="0"
       y1="0"
       x2="1"
       y2="0"
       gradientUnits="userSpaceOnUse"
       gradientTransform="matrix(2446.01,500.839,500.839,-2446.01,1981.34,3250.93)"
       spreadMethod="pad"
       id="linearGradient60">
      <stop
         style="stop-opacity:1;stop-color:#52b4e1"
         offset="0"
         id="stop56" />
      <stop
         style="stop-opacity:1;stop-color:#2d4ea8"
         offset="1"
         id="stop58" />
    </linearGradient>
  </defs>
  <sodipodi:namedview
     id="namedview4"
     pagecolor="#535353"
     bordercolor="#666666"
     borderopacity="1.0"
     inkscape:showpageshadow="2"
     inkscape:pageopacity="0"
     inkscape:pagecheckerboard="0"
     inkscape:deskcolor="#d1d1d1"
     showgrid="false"
     inkscape:zoom="1.0552474"
     inkscape:cx="296.13908"
     inkscape:cy="274.81707"
     inkscape:current-layer="g12">
    <inkscape:page
       x="0"
       y="0"
       id="page8"
       width="400"
       height="400"
       inkscape:export-filename="favicon.png"
       inkscape:export-xdpi="54.720001"
       inkscape:export-ydpi="54.720001" />
  </sodipodi:namedview>
  <g
     id="g10"
     inkscape:groupmode="layer"
     inkscape:label="Page 1"
     transform="matrix(1.3333333,0,0,-1.3333333,-202.83868,750.75167)">
    <g
       id="g12"
       transform="scale(0.1)">
      <g
         id="g1056"
         transform="translate(-36.753054,195.43671)">
        <g
           id="g2257"
           inkscape:transform-center-y="63.656969"
           transform="rotate(-2.1686611,-6748.2944,-73085.412)"
           style="opacity:1;fill:#ffffff;fill-opacity:1"
           inkscape:transform-center-x="5.1207504">
          <path
             id="path2185"
             style="fill:#ffffff;fill-opacity:1;stroke-width:15;stroke-miterlimit:8;paint-order:stroke fill markers;stop-color:#000000"
             inkscape:transform-center-x="-22.874247"
             inkscape:transform-center-y="22.873852"
             d="M 46.065219 5735.1977 A 1295.5106 1295.5106 0 0 1 -869.99812 5355.759 A 1295.5106 1295.5106 0 0 1 -869.99956 3523.641 A 1295.5106 1295.5106 0 0 1 874.94901 3465.3822 C 856.13518 3420.0361 865.14489 3366.0555 902.12858 3329.0719 L 1393.3491 2837.8504 C 1442.3762 2788.8234 1521.314 2788.8265 1570.341 2837.8537 L 1647.9106 2915.4198 C 1696.9377 2964.4468 1696.9344 3043.3846 1647.9073 3092.4116 L 1156.6868 3583.6331 C 1126.2284 3614.0916 1084.2296 3625.5643 1045.0262 3618.1776 A 1295.5106 1295.5106 0 0 1 962.11988 5355.7575 A 1295.5106 1295.5106 0 0 1 46.065219 5735.1977 z M 46.067004 5533.8572 A 1094.1638 1094.1638 0 0 0 1140.2181 4439.6924 A 1094.1638 1094.1638 0 0 0 46.068508 3345.5272 A 1094.1638 1094.1638 0 0 0 -1048.0973 4439.6915 A 1094.1638 1094.1638 0 0 0 46.067004 5533.8572 z " />
        </g>
        <g
           id="g16">
          <g
             id="g18"
             clip-path="url(#clipPath22)">
            <path
               d="m 1859.08,3689.13 c -14.49,-3.2 -29.1,-6.4 -43.7,-9.7 -15.59,-3.5 -31.3,-6.7 -47.29,-9.9 -2.61,6.7 -5,13.4 -7.31,20.1 12.5,15.3 25.51,30.2 38.9,44.9 10.51,11.5 21.3,22.6 32.3,33.6 8.1,-26.6 17.1,-53 27.1,-79"
               style="fill:url(#linearGradient28);fill-opacity:1;fill-rule:nonzero;stroke:none"
               id="path30" />
          </g>
        </g>
        <path
           d="m 4494.39,4994.73 c -33.91,-43.4 -70.4,-84.8 -110.71,-121.8 -10.09,-9.3 -20.09,-18.7 -30.4,-28 -10.1,-9.4 -21.09,-17.5 -31.7,-26.3 -10.8,-8.7 -21.7,-17 -32.59,-25.5 -10.81,-8.7 -22.01,-17 -33.51,-24.7 -33.1,-23.3 -67.6,-45 -103.4,-65 -5.4,-2.9 -10.59,-5.8 -15.9,-8.6 -57.69,-30.9 -118.3,-57.3 -181.2,-78.6 -29.6,-10.1 -59.7,-19 -90.1,-26.7 -0.3,-0.1 -0.7,-0.2 -0.99,-0.4 -79.9,-20.4 -161.91,-32.7 -242.5,-38.9 -50.3,-3.9 -100.11,-5.5 -149.01,-5.5 -59.69,0 -118.2,2.4 -175,5.6 -103.09,5.8 -200.89,14 -295.8,18.3 -46.2,2.1 -91.79,3.4 -137.3,3.4 -48.19,0 -96.3,-1.4 -144.69,-4.6 -23.5,-2.3 -47.21,-3.7 -71,-5.8 -23.8,-2.8 -47.61,-5.6 -71.9,-7.9 -23.81,-3.9 -48.1,-7.2 -72.61,-10.6 l -73.7,-12.6 c -6.19,-1.2 -12.5,-1.9 -18.69,-3.3 l -18.6,-3.8 c -12.41,-2.5 -24.81,-5.1 -37.5,-7.5 l -18.9,-3.6 c -6.41,-1.1 -12.9,-2.3 -19.11,-3.8 -12.5,-3 -25.29,-5.7 -38.1,-8.5 -51.9,-9.9 -102.79,-23.7 -158.1,-32.6 33.81,43.4 70.11,84.9 110.6,122 10,9.3 20.11,18.8 30.31,28 10.09,9.5 20.99,17.5 31.7,26.4 10.69,8.7 21.6,17 32.59,25.6 10.9,8.5 21.9,16.9 33.4,24.6 90.7,64 192.5,115.9 300.61,152.4 108.09,37.1 222.19,57.4 333.8,65.9 49.2,3.7 97.9,5.3 145.8,5.3 60.8,0 120.29,-2.5 178.09,-5.9 103.11,-6 200.8,-14.3 295.9,-18.7 18.2,-0.8 36.41,-1.5 54.5,-2 0.1,0 0.21,-0.1 0.31,-0.1 0.09,0 0.19,0.1 0.3,0.1 28.59,-0.9 57.1,-1.3 85.5,-1.3 47.1,0 94.1,1.3 141.49,4.4 23.41,2.4 47.21,3.7 71.01,5.8 10.09,1.2 20.19,2.4 30.49,3.6 11.21,1.2 22.5,2.5 33.9,3.6 2.4,0.3 4.9,0.5 7.4,0.8 12.01,2 24.01,3.7 36.2,5.4 12.1,1.8 24.3,3.6 36.51,5.2 l 73.59,12.7 c 6.3,1.1 12.6,1.8 18.7,3.2 6.2,1.4 12.41,2.6 18.61,3.9 12.5,2.5 24.9,5.1 37.59,7.5 l 18.9,3.7 c 6.41,1 12.9,2.2 19.1,3.8 12.5,2.9 25.31,5.7 38.11,8.5 51.79,9.9 102.79,23.8 158,32.9"
           style="fill:#52b5e2;fill-opacity:1;fill-rule:nonzero;stroke:none"
           id="path64" />
        <path
           d="m 4304.18,4593.33 c -24.49,-31.3 -50.4,-61.7 -78.09,-90 -1.91,-1.9 -3.71,-3.7 -5.5,-5.6 -4.41,-4.4 -8.8,-8.7 -13.3,-13 -1.01,-1 -1.91,-1.9 -2.9,-2.8 -3.61,-3.5 -7.2,-6.9 -11.01,-10.2 -9.89,-9.4 -20.1,-18.9 -30.29,-28 -10.11,-9.6 -21.11,-17.7 -31.7,-26.4 -10.8,-8.6 -21.7,-17.1 -32.71,-25.6 -10.8,-8.6 -21.89,-16.9 -33.4,-24.5 -90.7,-64 -192.3,-115.9 -300.49,-152.3 -108.11,-37.1 -222.1,-57.6 -333.61,-66 -50.09,-3.9 -99.5,-5.5 -148.2,-5.5 -60,0 -118.69,2.4 -175.79,5.6 -103.11,5.8 -200.9,14 -295.81,18.3 -46.19,2.1 -91.9,3.3 -137.39,3.3 -48.21,0 -96.21,-1.3 -144.71,-4.4 -23.3,-2.5 -47.1,-3.9 -71,-6 -23.69,-2.6 -47.5,-5.5 -71.79,-7.9 -23.8,-3.8 -48.1,-7.2 -72.61,-10.5 l -73.69,-12.7 c -6.11,-1 -12.5,-1.7 -18.7,-3.1 l -18.61,-4 c -12.4,-2.4 -24.79,-5.1 -37.5,-7.4 l -18.89,-3.6 c -6.41,-1.2 -12.81,-2.3 -19.11,-3.9 -12.59,-3 -25.29,-5.7 -38.1,-8.4 -51.8,-9.8 -102.9,-23.7 -158.19,-32.7 33.79,43.5 70.2,85.1 110.69,122 9.91,9.4 20.11,18.8 30.31,28 10.09,9.6 21,17.7 31.7,26.4 10.69,8.7 21.59,17.1 32.5,25.7 11,8.6 21.99,16.9 33.5,24.5 90.59,64.1 192.39,116 300.59,152.5 108.1,37 222.2,57.4 333.7,65.8 49.31,3.8 98.1,5.4 146,5.4 60.81,0 120.3,-2.5 178.01,-5.9 103.09,-6.1 200.8,-14.3 295.9,-18.6 46.69,-2.2 92.9,-3.5 138.99,-3.5 47.7,0 95.2,1.4 143.11,4.5 23.39,2.3 47.19,3.7 70.99,5.8 23.7,2.8 47.61,5.6 71.81,8 11.99,1.9 23.89,3.8 36.09,5.4 12.1,1.7 24.31,3.6 36.7,5.1 l 73.51,12.8 c 6.3,1 12.59,1.8 18.7,3.2 6.2,1.3 12.29,2.6 18.59,3.9 12.4,2.5 24.9,5.1 37.5,7.5 l 19.1,3.6 c 6.3,1.2 12.81,2.3 18.9,3.9 12.61,3 25.4,5.7 38.11,8.6 9.59,1.7 19.1,3.7 28.6,5.8 0.59,0.1 1.3,0.2 1.89,0.4 5.8,1.2 11.51,2.5 17.31,3.8 3.59,0.8 7.2,1.6 10.8,2.3 32.29,7.2 65.1,14.7 99.49,20.4"
           style="fill:#274355;fill-opacity:1;fill-rule:nonzero;stroke:none"
           id="path66" />
        <path
           d="m 4114.08,4192.13 c -33.99,-43.5 -70.4,-85 -110.9,-121.9 -10,-9.2 -20,-18.7 -30.3,-27.9 -10.1,-9.4 -20.99,-17.5 -31.7,-26.3 -10.7,-8.7 -21.6,-17 -32.59,-25.8 -10.9,-8.4 -21.91,-16.7 -33.4,-24.4 -90.71,-64.1 -192.5,-115.8 -300.5,-152.3 -108.11,-37.1 -222.1,-57.5 -333.6,-66 -50.21,-3.9 -99.91,-5.4 -148.71,-5.4 -59.9,0 -118.5,2.3 -175.29,5.5 -103.21,5.9 -200.91,14.1 -296,18.3 -46.5,2.2 -92.41,3.4 -138.21,3.4 -47.8,0 -95.59,-1.3 -143.8,-4.5 -23.3,-2.3 -46.99,-3.7 -70.99,-5.8 -23.61,-2.8 -47.5,-5.6 -71.71,-8 -23.9,-3.8 -48.1,-7.2 -72.7,-10.6 l -73.6,-12.7 c -6.29,-1.1 -12.5,-1.8 -18.7,-3.2 l -10.29,-2.2 -8.31,-1.6 c -12.4,-2.5 -24.8,-5.2 -37.5,-7.5 l -19.1,-3.6 c -6.39,-1.1 -12.79,-2.2 -19,-3.8 -12.59,-2.9 -25.2,-5.7 -37.99,-8.5 -13.41,-2.6 -26.81,-5.3 -40.11,-8.2 -14.49,-3.2 -29.1,-6.4 -43.7,-9.7 -15.59,-3.5 -31.3,-6.7 -47.29,-9.9 -8.9,-1.6 -18.01,-3.2 -27.2,-4.7 6.49,8.3 13.1,16.6 19.89,24.8 12.5,15.3 25.51,30.2 38.9,44.9 10.51,11.5 21.3,22.6 32.3,33.6 6.41,6.2 13,12.5 19.6,18.6 10,9.4 20,18.8 30.31,28.1 10.09,9.4 21.09,17.5 31.7,26.2 10.8,8.8 21.69,17.1 32.59,25.7 9.71,7.7 19.6,15.1 29.71,21.9 1.2,1 2.5,1.9 3.79,2.8 90.6,64 192.3,115.8 300.6,152.3 108,37.1 222.1,57.4 333.6,65.9 49.6,3.7 98.7,5.3 146.9,5.3 60.51,0 119.7,-2.4 177.1,-5.8 103.21,-6.3 200.9,-14.3 296.01,-18.7 46.7,-2.2 92.9,-3.4 138.99,-3.4 47.6,0 95.1,1.3 143.11,4.5 23.3,2.3 47.19,3.7 70.99,5.8 23.7,2.6 47.5,5.5 71.8,8 11.9,1.8 23.91,3.7 36.01,5.4 12.19,1.8 24.29,3.5 36.6,5 l 73.7,12.8 c 6.19,1.2 12.6,1.9 18.69,3.3 6.2,1.4 12.31,2.6 18.51,3.7 12.5,2.7 25,5.3 37.59,7.7 l 19.01,3.6 c 6.39,1 12.79,2.3 18.99,3.8 12.6,3 25.4,5.7 38.11,8.6 51.89,9.8 102.79,23.7 158.09,32.9"
           style="fill:#add31a;fill-opacity:1;fill-rule:nonzero;stroke:none"
           id="path68" />
        <path
           d="m 3923.89,3790.73 c -33.91,-43.3 -70.3,-84.8 -110.8,-121.8 -10,-9.2 -20.11,-18.7 -30.31,-28 -10.09,-9.4 -20.99,-17.5 -31.69,-26.2 -10.71,-8.7 -21.61,-17.1 -32.6,-25.7 -10.9,-8.6 -21.91,-16.8 -33.61,-24.5 -90.59,-64 -192.29,-115.8 -300.4,-152.2 -107.99,-37.1 -222.1,-57.7 -333.7,-66.2 -49.89,-3.8 -99.09,-5.4 -147.5,-5.4 -55.59,0 -110,2.1 -163.09,5 -4.41,0.2 -8.9,0.4 -13.3,0.7 -64.91,3.6 -127.61,8.2 -188.91,12.2 -0.5,0 -1.2,0.1 -1.8,0.1 -19.69,1.3 -39.09,2.4 -58.3,3.5 -15.7,0.9 -31.3,1.7 -46.9,2.4 -46.59,2.2 -92.8,3.4 -138.8,3.4 -6.7,0 -13.3,0 -20,-0.1 h -3.59 c -39.91,-0.5 -79.51,-1.9 -119.6,-4.4 -23.4,-2.4 -47.21,-3.8 -71.01,-5.9 -8.79,-1 -17.7,-2 -26.49,-3.1 -15,-1.6 -30.11,-3.4 -45.31,-4.9 -19.29,-3.1 -38.89,-5.9 -58.8,-8.6 -4.5,-0.6 -9.2,-1.2 -13.79,-1.8 l -73.71,-12.7 c -6.2,-1.2 -12.59,-1.9 -18.7,-3.2 l -18.49,-3.9 c -12.5,-2.4 -25,-5.1 -37.61,-7.4 l -18.99,-3.6 c -6.41,-1.2 -12.81,-2.3 -19,-4 -12.61,-2.9 -25.4,-5.6 -38.1,-8.3 -51.9,-9.9 -102.9,-23.7 -158.21,-32.7 33.81,43.5 70.31,85 110.6,122 10,9.3 20.11,18.8 30.4,28 10.11,9.6 21,17.6 31.7,26.4 10.71,8.7 21.6,17.1 32.5,25.6 10.91,8.6 22,16.9 33.61,24.6 14.8,10.5 29.69,20.5 45,30.1 25.49,16.5 51.9,31.8 79,46.2 56.2,29.9 115.29,55.5 176.49,76 14.4,5 29,9.7 43.71,14 54.8,16.5 110.8,28.8 166.99,37.6 13.61,2.2 27.31,4.2 40.91,6 27.39,3.6 54.8,6.2 82.1,8.3 24.39,1.9 48.69,3.3 72.9,4.1 24.69,0.9 49.2,1.2 73.5,1.2 60.59,0 119.89,-2.3 177.59,-5.7 103.11,-6.1 200.9,-14.3 295.81,-18.7 46.89,-2.2 93.3,-3.5 139.5,-3.5 47.5,0 94.89,1.4 142.69,4.5 23.4,2.4 47.2,3.7 71.01,5.8 23.69,2.8 47.6,5.6 71.8,8 12,2 24,3.7 36.1,5.5 12.1,1.7 24.3,3.5 36.59,5.1 l 73.7,12.8 c 6.2,1 12.5,1.7 18.61,3.1 6.1,1.4 12.29,2.7 18.6,4 12.39,2.4 24.79,5.1 37.5,7.4 l 19.09,3.7 c 6.41,1.1 12.8,2.2 18.91,3.9 12.59,2.9 25.29,5.7 38.09,8.4 52,9.9 102.9,23.9 158.11,32.9"
           style="fill:#e47d1f;fill-opacity:1;fill-rule:nonzero;stroke:none"
           id="path70" />
      </g>
    </g>
  </g>
</svg>
